<?xml version="1.0" encoding="utf-8"?>
<!-- Generator: Adobe Illustrator 23.0.1, SVG Export Plug-In . SVG Version: 6.00 Build 0)  -->
<svg version="1.1" id="Livello_1" xmlns="http://www.w3.org/2000/svg" xmlns:xlink="http://www.w3.org/1999/xlink" x="0px" y="0px"
	 viewBox="0 0 800 800" style="enable-background:new 0 0 800 800;" xml:space="preserve">
<style type="text/css">
	.st0{fill:#FFFFFF;}
</style>
<g>
	<g>
		<g>
			<g>
				<path class="st0" d="M533.72,393.21l-17.92-33.15c0.32-3.52,0.49-6.98,0.49-10.36c0-22.06-6.21-43.53-17.96-62.09
					c-10.81-17.07-25.83-31.01-43.59-40.5l-21.14-39.11c-6.79-12.53-19.34-20.01-33.6-20.01c-14.24,0-26.8,7.49-33.59,20.01
					l-21.14,39.11c-17.76,9.49-32.8,23.43-43.59,40.5c-11.75,18.55-17.96,40.02-17.96,62.09c0,3.36,0.17,6.83,0.49,10.36
					l-17.92,33.15c-6.47,11.95-6.16,26.04,0.79,37.7c6.95,11.68,19.21,18.63,32.8,18.63h40.56c18.01,10.77,38.52,16.46,59.57,16.46
					c21.06,0,41.57-5.69,59.58-16.46h40.56c13.59,0,25.84-6.95,32.8-18.63C539.88,419.25,540.18,405.16,533.72,393.21z
					 M456.58,438.93H343.42c-26.16-16.63-44.5-44.43-48.31-76.69l57.96-107.18c14.15-7.03,30.08-10.99,46.93-10.99
					c16.87,0,32.8,3.96,46.95,10.99l57.96,107.18C501.07,394.5,482.74,422.3,456.58,438.93z"/>
				<path class="st0" d="M427.27,343.42v-0.31c4.05-1.1,9.6-2.61,13.2-6.33c7.24-7.49,2.46-29.57-4.49-40.02
					c-6.08-9.13-12.35-11.72-30.51-12.58c-1.58-0.02-3.47-0.04-5.55-0.04c-2.08,0-3.97,0.02-5.55,0.04
					c-18.15,0.86-24.43,3.45-30.51,12.58c-6.95,10.45-11.73,32.53-4.49,40.02c3.61,3.73,9.15,5.23,13.2,6.33v0.31
					c-38.48,9.32-9.3,54.96-1.75,59.57c5.98,3.64,17.94,4.97,29.08,5.01c11.14-0.04,23.1-1.37,29.08-5.01
					C436.58,398.38,465.75,352.75,427.27,343.42z M384.98,298.98c2.1-2.12,8.56-2.98,14.95-2.95c6.39-0.03,12.85,0.83,14.95,2.95
					c4.68,4.7,6.81,28.94,4.03,35.2c-1.78,3.99-4.25,5.92-18.98,6.38c-14.73-0.45-17.2-2.38-18.97-6.38
					C378.18,327.92,380.31,303.68,384.98,298.98z M417.03,393.05c-2.74,6.32-4.04,6.77-17.09,7.13
					c-13.05-0.36-14.36-0.81-17.08-7.13c-3.53-8.14-6.99-35.13-0.71-40.63c2.95-2.59,10.48-3.63,17.79-3.56
					c7.31-0.07,14.84,0.97,17.79,3.56C424.01,357.93,420.54,384.91,417.03,393.05z"/>
			</g>
		</g>
	</g>
</g>
<g>
	<g>
		<g>
			<g>
				<g>
					<g>
						<g>
							<path class="st0" d="M303.36,515.97h-31.71c-5.6,0-10.43,3.95-11.53,9.45l-17.67,88.34h27.66l3.16-16.08
								c1.08-5.51,5.92-9.49,11.53-9.49h9.89c29.48,0,48.33-16.06,48.33-40.79C343.04,527.56,328.79,515.97,303.36,515.97z
								 M295.96,566.4h-16.48l4.99-24.94c0.43-2.15,2.32-3.7,4.51-3.7h10.76c9.64,0,15.37,3.77,15.37,12.01
								C315.1,560.53,308.11,566.4,295.96,566.4z"/>
						</g>
					</g>
					<path class="st0" d="M551.57,515.97H538.7c-1.81,0-3.52,0.82-4.65,2.23l-29.5,36.74l-13.88-35.2c-0.9-2.28-3.1-3.78-5.55-3.78
						h-14.95c-4.22,0-7.1,4.25-5.54,8.17l21.61,54.27l-6.98,35.34h27.66l6.84-34.64l42.47-53.47
						C559.34,521.73,556.56,515.97,551.57,515.97z"/>
					<path class="st0" d="M417.97,594.76h-41.63l-11.32,19h-29.2l59.63-92.96c1.93-3,5.25-4.82,8.82-4.82h13.26
						c4.84,0,9.05,3.31,10.19,8.02l21.67,89.77h-27.52L417.97,594.76z M413.77,574.36l-6.57-31.71l-18.72,31.71H413.77z"/>
				</g>
			</g>
		</g>
	</g>
</g>
</svg>
