<?xml version="1.0" encoding="utf-8"?>
<!-- Generator: Adobe Illustrator 23.0.1, SVG Export Plug-In . SVG Version: 6.00 Build 0)  -->
<svg version="1.1" id="Livello_1" xmlns="http://www.w3.org/2000/svg" xmlns:xlink="http://www.w3.org/1999/xlink" x="0px" y="0px"
	 viewBox="0 0 800 800" style="enable-background:new 0 0 800 800;" xml:space="preserve">
<style type="text/css">
	.st0{fill:#FFFFFF;}
</style>
<g>
	<g>
		<g>
			<g>
				<g>
					<path class="st0" d="M536.95,466.21l-17.92-33.15c0.32-3.52,0.49-6.98,0.49-10.36c0-22.06-6.21-43.53-17.96-62.09
						c-10.81-17.07-25.83-31.01-43.59-40.5l-21.14-39.11c-6.79-12.53-19.34-20.01-33.6-20.01c-14.24,0-26.8,7.49-33.59,20.01
						l-21.14,39.11c-17.76,9.49-32.8,23.43-43.59,40.5c-11.75,18.55-17.96,40.02-17.96,62.09c0,3.36,0.17,6.83,0.49,10.36
						l-17.92,33.15c-6.47,11.95-6.16,26.04,0.79,37.7c6.95,11.68,19.21,18.63,32.8,18.63h40.56c18.01,10.77,38.52,16.46,59.57,16.46
						c21.06,0,41.57-5.69,59.58-16.46h40.56c13.59,0,25.84-6.95,32.8-18.63C543.11,492.25,543.42,478.16,536.95,466.21z
						 M459.81,511.93H346.65c-26.16-16.63-44.5-44.43-48.31-76.69l57.96-107.18c14.15-7.03,30.08-10.99,46.93-10.99
						c16.87,0,32.8,3.96,46.95,10.99l57.96,107.18C504.3,467.5,485.98,495.3,459.81,511.93z"/>
					<path class="st0" d="M430.5,416.42v-0.31c4.05-1.1,9.6-2.61,13.2-6.33c7.24-7.49,2.46-29.57-4.49-40.02
						c-6.08-9.13-12.35-11.72-30.51-12.58c-1.58-0.02-3.47-0.04-5.55-0.04c-2.08,0-3.97,0.02-5.55,0.04
						c-18.15,0.86-24.43,3.45-30.51,12.58c-6.95,10.45-11.73,32.53-4.49,40.02c3.61,3.73,9.15,5.23,13.2,6.33v0.31
						c-38.48,9.32-9.3,54.96-1.75,59.57c5.98,3.64,17.94,4.97,29.08,5.01c11.14-0.04,23.1-1.37,29.08-5.01
						C439.81,471.38,468.98,425.75,430.5,416.42z M388.21,371.98c2.1-2.12,8.56-2.98,14.95-2.95c6.39-0.03,12.85,0.83,14.95,2.95
						c4.68,4.7,6.81,28.94,4.03,35.2c-1.78,3.99-4.25,5.92-18.98,6.38c-14.73-0.45-17.2-2.38-18.97-6.38
						C381.42,400.92,383.54,376.68,388.21,371.98z M420.26,466.05c-2.74,6.32-4.04,6.77-17.09,7.13
						c-13.05-0.36-14.36-0.81-17.08-7.13c-3.53-8.14-6.99-35.13-0.71-40.63c2.95-2.59,10.48-3.63,17.79-3.56
						c7.31-0.07,14.84,0.97,17.79,3.56C427.24,430.93,423.78,457.91,420.26,466.05z"/>
				</g>
			</g>
		</g>
	</g>
	<g>
		<g>
			<g>
				<path class="st0" d="M216.73,327.12h-47.54c-8.43,0-15.72,5.97-17.33,14.21l-26.52,132.4h41.48l4.74-24.15
					c1.61-8.24,8.9-14.21,17.33-14.21h14.77c44.23,0,72.54-24.06,72.54-61.08C276.2,344.55,254.8,327.12,216.73,327.12z
					 M205.55,402.69h-24.72l7.48-37.41c0.66-3.22,3.5-5.49,6.82-5.49h16.1c14.49,0,23.01,5.68,23.01,17.99
					C234.25,393.89,223.83,402.69,205.55,402.69z"/>
			</g>
		</g>
		<path class="st0" d="M665.71,327.12h-19.29c-2.71,0-5.27,1.23-6.97,3.34l-44.23,55.09l-20.8-52.77c-1.35-3.42-4.65-5.66-8.32-5.66
			h-22.41c-6.32,0-10.64,6.38-8.31,12.25l32.4,81.37l-10.47,52.99h41.47l10.26-51.94l63.67-80.16
			C677.36,335.76,673.19,327.12,665.71,327.12z"/>
	</g>
</g>
</svg>
