<?xml version="1.0" encoding="utf-8"?>
<!-- Generator: Adobe Illustrator 23.0.1, SVG Export Plug-In . SVG Version: 6.00 Build 0)  -->
<svg version="1.1" id="Livello_1" xmlns="http://www.w3.org/2000/svg" xmlns:xlink="http://www.w3.org/1999/xlink" x="0px" y="0px"
	 viewBox="0 0 800 800" style="enable-background:new 0 0 800 800;" xml:space="preserve">
<style type="text/css">
	.st0{fill:#FFFFFF;}
</style>
<g>
	<g>
		<g>
			<g>
				<path class="st0" d="M582.21,474.81l-24.41-45.17c0.43-4.8,0.66-9.52,0.66-14.11c0-30.06-8.46-59.32-24.48-84.6
					c-14.73-23.26-35.19-42.25-59.4-55.18l-28.8-53.3c-9.25-17.07-26.36-27.27-45.79-27.27c-19.41,0-36.52,10.2-45.77,27.27
					l-28.8,53.3c-24.21,12.93-44.69,31.93-59.4,55.18c-16.01,25.28-24.48,54.54-24.48,84.6c0,4.57,0.23,9.31,0.66,14.11
					l-24.41,45.17c-8.81,16.28-8.4,35.48,1.08,51.37c9.48,15.91,26.17,25.39,44.69,25.39h55.26c24.54,14.67,52.49,22.43,81.17,22.43
					c28.7,0,56.65-7.76,81.19-22.43h55.26c18.52,0,35.21-9.48,44.69-25.39C590.61,510.29,591.02,491.09,582.21,474.81z
					 M477.1,537.11H322.9c-35.65-22.66-60.64-60.54-65.84-104.51l78.97-146.05c19.28-9.58,40.99-14.98,63.95-14.98
					c22.99,0,44.69,5.4,63.97,14.98l78.97,146.05C537.73,476.57,512.75,514.45,477.1,537.11z"/>
				<path class="st0" d="M437.16,406.97v-0.43c5.52-1.5,13.08-3.55,17.99-8.63c9.87-10.2,3.36-40.29-6.11-54.53
					c-8.29-12.44-16.84-15.97-41.57-17.14c-2.15-0.03-4.72-0.06-7.56-0.06c-2.84,0-5.41,0.03-7.56,0.06
					c-24.74,1.17-33.29,4.69-41.57,17.14c-9.47,14.23-15.98,44.33-6.11,54.53c4.91,5.08,12.47,7.13,17.99,8.63v0.43
					c-52.43,12.71-12.68,74.89-2.38,81.18c8.15,4.96,24.45,6.77,39.63,6.83c15.18-0.06,31.48-1.87,39.63-6.83
					C449.84,481.86,489.6,419.67,437.16,406.97z M379.54,346.41c2.86-2.89,11.66-4.06,20.37-4.02c8.71-0.04,17.51,1.13,20.37,4.02
					c6.37,6.4,9.28,39.44,5.49,47.96c-2.42,5.44-5.8,8.07-25.87,8.69c-20.07-0.62-23.44-3.25-25.85-8.69
					C370.27,385.85,373.16,352.81,379.54,346.41z M423.2,474.6c-3.73,8.62-5.51,9.22-23.29,9.72c-17.79-0.5-19.56-1.1-23.28-9.72
					c-4.8-11.1-9.53-47.86-0.96-55.37c4.02-3.52,14.28-4.94,24.24-4.85c9.97-0.1,20.22,1.32,24.24,4.85
					C432.71,426.74,427.99,463.51,423.2,474.6z"/>
			</g>
		</g>
	</g>
</g>
</svg>
